<svg version="1.1" xmlns="http://www.w3.org/2000/svg" xmlns:xlink="http://www.w3.org/1999/xlink" width="991" height="1014"><defs/><g><g/><g/><g/><g/><g/><g/><g/><g/><g/><g/><g/><g/><g/><g/><g/><g/><g/><g/><g><rect fill="white" stroke="none" x="0" y="0" width="991" height="1014"/></g><g><text fill="black" stroke="none" font-family="sans-serif" font-size="16.5pt" font-style="normal" font-weight="normal" text-decoration="normal" x="223.4573587788525" y="22.6179738" text-anchor="start" dominant-baseline="alphabetic" xml:space="preserve">RNN for Language Translation Sequence Diagram</text></g><g/><g><path fill="none" stroke="black" paint-order="fill stroke markers" d=" M 49.3329914252373 88.511670804 L 49.3329914252373 1014.943877652" stroke-miterlimit="10" stroke-width="1.2565541" stroke-dasharray="11.598960923076923,5.0262164"/><path fill="none" stroke="black" paint-order="fill stroke markers" d=" M 140.0823082448281 88.511670804 L 140.0823082448281 1014.943877652" stroke-miterlimit="10" stroke-width="1.2565541" stroke-dasharray="11.598960923076923,5.0262164"/><path fill="none" stroke="black" paint-order="fill stroke markers" d=" M 344.8218102424843 88.511670804 L 344.8218102424843 1014.943877652" stroke-miterlimit="10" stroke-width="1.2565541" stroke-dasharray="11.598960923076923,5.0262164"/><path fill="none" stroke="black" paint-order="fill stroke markers" d=" M 486.17112744354483 288.605345688 L 486.17112744354483 1014.943877652" stroke-miterlimit="10" stroke-width="1.2565541" stroke-dasharray="11.598960923076923,5.0262164"/><path fill="none" stroke="black" paint-order="fill stroke markers" d=" M 742.976170441201 88.511670804 L 742.976170441201 1014.943877652" stroke-miterlimit="10" stroke-width="1.2565541" stroke-dasharray="11.598960923076923,5.0262164"/><path fill="none" stroke="black" paint-order="fill stroke markers" d=" M 878.8312164906151 604.8046194120002 L 878.8312164906151 1014.943877652" stroke-miterlimit="10" stroke-width="1.2565541" stroke-dasharray="11.598960923076923,5.0262164"/></g><g><path fill="none" stroke="none"/><g><path fill="white" stroke="black" paint-order="fill stroke markers" d=" M 7.5393246000000005 47.799317964000004 L 91.1266582504746 47.799317964000004 L 91.1266582504746 88.511670804 L 7.5393246000000005 88.511670804 L 7.5393246000000005 47.799317964000004 Z" stroke-miterlimit="10" stroke-width="2.4125838720000004" stroke-dasharray=""/></g><g><g/><text fill="black" stroke="none" font-family="sans-serif" font-size="11pt" font-style="normal" font-weight="normal" text-decoration="normal" x="23.899658982" y="73.43302160400002" text-anchor="start" dominant-baseline="alphabetic" xml:space="preserve">Python</text></g><path fill="none" stroke="none"/><g><path fill="white" stroke="black" paint-order="fill stroke markers" d=" M 106.2053074504746 47.799317964000004 L 173.95930903918162 47.799317964000004 L 173.95930903918162 88.511670804 L 106.2053074504746 88.511670804 L 106.2053074504746 47.799317964000004 Z" stroke-miterlimit="10" stroke-width="2.4125838720000004" stroke-dasharray=""/></g><g><g/><text fill="black" stroke="none" font-family="sans-serif" font-size="11pt" font-style="normal" font-weight="normal" text-decoration="normal" x="122.5656418324746" y="73.43302160400002" text-anchor="start" dominant-baseline="alphabetic" xml:space="preserve">Main</text></g><path fill="none" stroke="none"/><g><path fill="white" stroke="black" paint-order="fill stroke markers" d=" M 269.21147586048426 47.799317964000004 L 420.4321446244843 47.799317964000004 L 420.4321446244843 88.511670804 L 269.21147586048426 88.511670804 L 269.21147586048426 47.799317964000004 Z" stroke-miterlimit="10" stroke-width="2.4125838720000004" stroke-dasharray=""/></g><g><g/><text fill="black" stroke="none" font-family="sans-serif" font-size="11pt" font-style="normal" font-weight="normal" text-decoration="normal" x="285.5718102424843" y="73.43302160400002" text-anchor="start" dominant-baseline="alphabetic" xml:space="preserve">Prepare Dataset</text></g><path fill="none" stroke="none"/><g><path fill="white" stroke="black" paint-order="fill stroke markers" d=" M 664.6825017086151 47.799317964000004 L 821.269839173787 47.799317964000004 L 821.269839173787 88.511670804 L 664.6825017086151 88.511670804 L 664.6825017086151 47.799317964000004 Z" stroke-miterlimit="10" stroke-width="2.4125838720000004" stroke-dasharray=""/></g><g><g/><text fill="black" stroke="none" font-family="sans-serif" font-size="11pt" font-style="normal" font-weight="normal" text-decoration="normal" x="681.0428360906151" y="73.43302160400002" text-anchor="start" dominant-baseline="alphabetic" xml:space="preserve">One-hot Enc/Dec</text></g></g><g><path fill="white" stroke="black" paint-order="fill stroke markers" d=" M 132.5429836448281 138.27121316400002 L 147.62163284482813 138.27121316400002 L 147.62163284482813 962.168605452 L 132.5429836448281 962.168605452 L 132.5429836448281 138.27121316400002" stroke-miterlimit="10" stroke-width="1.2565541" stroke-dasharray=""/><path fill="white" stroke="black" paint-order="fill stroke markers" d=" M 337.2824856424843 180.491430924 L 352.36113484248426 180.491430924 L 352.36113484248426 222.711648684 L 337.2824856424843 222.711648684 L 337.2824856424843 180.491430924" stroke-miterlimit="10" stroke-width="1.2565541" stroke-dasharray=""/><path fill="white" stroke="black" paint-order="fill stroke markers" d=" M 478.63180284354485 288.605345688 L 493.7104520435448 288.605345688 L 493.7104520435448 392.64802516800006 L 478.63180284354485 392.64802516800006 L 478.63180284354485 288.605345688" stroke-miterlimit="10" stroke-width="1.2565541" stroke-dasharray=""/><path fill="white" stroke="black" paint-order="fill stroke markers" d=" M 735.436845841201 434.8682429280001 L 750.515495041201 434.8682429280001 L 750.515495041201 477.0884606880001 L 735.436845841201 477.0884606880001 L 735.436845841201 434.8682429280001" stroke-miterlimit="10" stroke-width="1.2565541" stroke-dasharray=""/><path fill="white" stroke="black" paint-order="fill stroke markers" d=" M 871.2918918906151 604.8046194120002 L 886.3705410906151 604.8046194120002 L 886.3705410906151 835.507952172 L 871.2918918906151 835.507952172 L 871.2918918906151 604.8046194120002" stroke-miterlimit="10" stroke-width="1.2565541" stroke-dasharray=""/><path fill="white" stroke="black" paint-order="fill stroke markers" d=" M 735.436845841201 835.507952172 L 750.515495041201 835.507952172 L 750.515495041201 877.728169932 L 735.436845841201 877.728169932 L 735.436845841201 835.507952172" stroke-miterlimit="10" stroke-width="1.2565541" stroke-dasharray=""/><path fill="white" stroke="black" paint-order="fill stroke markers" d=" M 478.63180284354485 877.728169932 L 493.7104520435448 877.728169932 L 493.7104520435448 919.948387692 L 478.63180284354485 919.948387692 L 478.63180284354485 877.728169932" stroke-miterlimit="10" stroke-width="1.2565541" stroke-dasharray=""/><g><g><rect fill="white" stroke="none" x="70.75952412414891" y="118.668969204" width="40.35692682176758" height="19.602243960000003"/></g><text fill="black" stroke="none" font-family="sans-serif" font-size="11pt" font-style="normal" font-weight="normal" text-decoration="normal" x="73.02132150414891" y="132.239753484" text-anchor="start" dominant-baseline="alphabetic" xml:space="preserve">Start</text></g><g><path fill="none" stroke="black" paint-order="fill stroke markers" d=" M 49.3329914252373 138.27121316400002 L 120.1282291368281 138.27121316400002" stroke-miterlimit="10" stroke-width="1.2565541" stroke-dasharray=""/><g transform="translate(132.5429836448281,138.27121316400002) translate(-132.5429836448281,-138.27121316400002)"><path fill="black" stroke="none" paint-order="stroke fill markers" d=" M 119.9774426448281 131.98844266400002 L 132.5429836448281 138.27121316400002 L 119.9774426448281 144.55398366400001 Z"/></g></g><g><g><rect fill="white" stroke="none" x="183.47359468836325" y="160.889186964" width="117.95692911058593" height="19.602243960000003"/></g><text fill="black" stroke="none" font-family="sans-serif" font-size="11pt" font-style="normal" font-weight="normal" text-decoration="normal" x="185.73539206836324" y="174.459971244" text-anchor="start" dominant-baseline="alphabetic" xml:space="preserve">Read Data Files</text></g><g><path fill="none" stroke="black" paint-order="fill stroke markers" d=" M 147.62163284482813 180.491430924 L 324.8677311344843 180.491430924" stroke-miterlimit="10" stroke-width="1.2565541" stroke-dasharray=""/><g transform="translate(337.2824856424843,180.491430924) translate(-337.2824856424843,-180.491430924)"><path fill="black" stroke="none" paint-order="stroke fill markers" d=" M 324.7169446424843 174.20866042400002 L 337.2824856424843 180.491430924 L 324.7169446424843 186.774201424 Z"/></g></g><g><g><rect fill="white" stroke="none" x="176.63192751307028" y="203.109404724" width="131.64026346117188" height="19.602243960000003"/></g><text fill="black" stroke="none" font-family="sans-serif" font-size="11pt" font-style="normal" font-weight="normal" text-decoration="normal" x="178.89372489307027" y="216.680189004" text-anchor="start" dominant-baseline="alphabetic" xml:space="preserve">Code Statements</text></g><g><path fill="none" stroke="black" paint-order="fill stroke markers" d=" M 337.2824856424843 222.711648684 L 160.03638735282811 222.711648684" stroke-miterlimit="10" stroke-width="1.2565541" stroke-dasharray=""/><g transform="translate(147.62163284482813,222.711648684) translate(-147.62163284482813,-222.711648684)"><path fill="black" stroke="none" paint-order="stroke fill markers" d=" M 160.18717384482812 216.428878184 L 147.62163284482813 222.711648684 L 160.18717384482812 228.994419184 Z"/></g></g><path fill="none" stroke="none"/><g><path fill="white" stroke="black" paint-order="fill stroke markers" d=" M 435.51079382448427 246.61130766600002 L 536.8314610626054 246.61130766600002 L 536.8314610626054 287.323660506 L 435.51079382448427 287.323660506 L 435.51079382448427 246.61130766600002 Z" stroke-miterlimit="10" stroke-width="2.4125838720000004" stroke-dasharray=""/></g><g><g/><text fill="black" stroke="none" font-family="sans-serif" font-size="11pt" font-style="normal" font-weight="normal" text-decoration="normal" x="451.8711282064843" y="272.2450113060001" text-anchor="start" dominant-baseline="alphabetic" xml:space="preserve">Tokenizer</text></g><g><g><rect fill="white" stroke="none" x="215.77108312994918" y="247.365240126" width="151.59026040941407" height="19.602243960000003"/></g><text fill="black" stroke="none" font-family="sans-serif" font-size="11pt" font-style="normal" font-weight="normal" text-decoration="normal" x="218.03288050994917" y="260.936024406" text-anchor="start" dominant-baseline="alphabetic" xml:space="preserve">Dataset Information</text></g><g><path fill="none" stroke="black" paint-order="fill stroke markers" d=" M 147.62163284482813 266.967484086 L 423.0960393164843 266.967484086" stroke-miterlimit="10" stroke-width="1.2565541" stroke-dasharray=""/><g transform="translate(435.51079382448427,266.967484086) translate(-435.51079382448427,-266.967484086)"><path fill="black" stroke="none" paint-order="stroke fill markers" d=" M 422.94525282448427 260.684713586 L 435.51079382448427 266.967484086 L 422.94525282448427 273.25025458600004 Z"/></g></g><g><g><rect fill="white" stroke="none" x="511.55352026354484" y="311.223319488" width="78.29026498705078" height="19.602243960000003"/></g><text fill="black" stroke="none" font-family="sans-serif" font-size="11pt" font-style="normal" font-weight="normal" text-decoration="normal" x="513.8153176435449" y="324.794103768" text-anchor="start" dominant-baseline="alphabetic" xml:space="preserve">Fit on text</text></g><g><path fill="none" stroke="black" paint-order="fill stroke markers" d=" M 493.7104520435448 330.825563448 L 554.0250488435448 330.825563448 L 554.0250488435448 350.42780740800004 L 506.1252065515448 350.42780740800004" stroke-miterlimit="10" stroke-width="1.2565541" stroke-dasharray=""/><g transform="translate(493.7104520435448,350.42780740800004) translate(-493.7104520435448,-350.42780740800004)"><path fill="black" stroke="none" paint-order="stroke fill markers" d=" M 506.2759930435448 344.145036908 L 493.7104520435448 350.42780740800004 L 506.2759930435448 356.71057790800006 Z"/></g></g><g><g><rect fill="white" stroke="none" x="255.2482555777119" y="373.04578120800005" width="115.75692453294921" height="19.602243960000003"/></g><text fill="black" stroke="none" font-family="sans-serif" font-size="11pt" font-style="normal" font-weight="normal" text-decoration="normal" x="257.5100529577119" y="386.6165654880001" text-anchor="start" dominant-baseline="alphabetic" xml:space="preserve">Vectorized Text</text></g><g><path fill="none" stroke="black" paint-order="fill stroke markers" d=" M 478.63180284354485 392.64802516800006 L 160.03638735282811 392.64802516800006" stroke-miterlimit="10" stroke-width="1.2565541" stroke-dasharray="6.03145968"/><g transform="translate(147.62163284482813,392.64802516800006) translate(-147.62163284482813,-392.64802516800006)"><path fill="black" stroke="none" paint-order="stroke fill markers" d=" M 160.18717384482812 386.36525466800003 L 147.62163284482813 392.64802516800006 L 160.18717384482812 398.9307956680001 Z"/></g></g><g><g><rect fill="white" stroke="none" x="383.65077707653995" y="415.2659989680001" width="115.75692453294921" height="19.602243960000003"/></g><text fill="black" stroke="none" font-family="sans-serif" font-size="11pt" font-style="normal" font-weight="normal" text-decoration="normal" x="385.91257445653997" y="428.8367832480001" text-anchor="start" dominant-baseline="alphabetic" xml:space="preserve">Vectorized Text</text></g><g><path fill="none" stroke="black" paint-order="fill stroke markers" d=" M 147.62163284482813 434.8682429280001 L 723.022091333201 434.8682429280001" stroke-miterlimit="10" stroke-width="1.2565541" stroke-dasharray=""/><g transform="translate(735.436845841201,434.8682429280001) translate(-735.436845841201,-434.8682429280001)"><path fill="black" stroke="none" paint-order="stroke fill markers" d=" M 722.871304841201 428.58547242800006 L 735.436845841201 434.8682429280001 L 722.871304841201 441.1510134280001 Z"/></g></g><g><g><rect fill="white" stroke="none" x="338.1007778394794" y="457.4862167280001" width="206.85692300707032" height="19.602243960000003"/></g><text fill="black" stroke="none" font-family="sans-serif" font-size="11pt" font-style="normal" font-weight="normal" text-decoration="normal" x="340.3625752194794" y="471.05700100800016" text-anchor="start" dominant-baseline="alphabetic" xml:space="preserve">One-hot encoded sequence</text></g><g><path fill="none" stroke="black" paint-order="fill stroke markers" d=" M 735.436845841201 477.0884606880001 L 160.03638735282811 477.0884606880001" stroke-miterlimit="10" stroke-width="1.2565541" stroke-dasharray="6.03145968"/><g transform="translate(147.62163284482813,477.0884606880001) translate(-147.62163284482813,-477.0884606880001)"><path fill="black" stroke="none" paint-order="stroke fill markers" d=" M 160.18717384482812 470.8056901880001 L 147.62163284482813 477.0884606880001 L 160.18717384482812 483.37123118800014 Z"/></g></g><g><g><rect fill="white" stroke="none" x="165.46470106482812" y="499.7064344880001" width="166.54025735765626" height="19.602243960000003"/></g><text fill="black" stroke="none" font-family="sans-serif" font-size="11pt" font-style="normal" font-weight="normal" text-decoration="normal" x="167.7264984448281" y="513.2772187680001" text-anchor="start" dominant-baseline="alphabetic" xml:space="preserve">Split data in Train/Test</text></g><g><path fill="none" stroke="black" paint-order="fill stroke markers" d=" M 147.62163284482813 519.3086784480001 L 207.93622964482813 519.3086784480001 L 207.93622964482813 538.9109224080001 L 160.03638735282811 538.9109224080001" stroke-miterlimit="10" stroke-width="1.2565541" stroke-dasharray=""/><g transform="translate(147.62163284482813,538.9109224080001) translate(-147.62163284482813,-538.9109224080001)"><path fill="black" stroke="none" paint-order="stroke fill markers" d=" M 160.18717384482812 532.6281519080002 L 147.62163284482813 538.9109224080001 L 160.18717384482812 545.1936929080001 Z"/></g></g><path fill="none" stroke="none"/><g><path fill="white" stroke="black" paint-order="fill stroke markers" d=" M 846.3875481394989 562.8105813900002 L 911.2748848417314 562.8105813900002 L 911.2748848417314 603.5229342300001 L 846.3875481394989 603.5229342300001 L 846.3875481394989 562.8105813900002 Z" stroke-miterlimit="10" stroke-width="2.4125838720000004" stroke-dasharray=""/></g><g><g/><text fill="black" stroke="none" font-family="sans-serif" font-size="11pt" font-style="normal" font-weight="normal" text-decoration="normal" x="862.7478825214989" y="588.4442850300001" text-anchor="start" dominant-baseline="alphabetic" xml:space="preserve">RNN</text></g><g><g><rect fill="white" stroke="none" x="420.6094618133354" y="563.5645138500001" width="152.79025735765626" height="19.602243960000003"/></g><text fill="black" stroke="none" font-family="sans-serif" font-size="11pt" font-style="normal" font-weight="normal" text-decoration="normal" x="422.8712591933354" y="577.1352981300001" text-anchor="start" dominant-baseline="alphabetic" xml:space="preserve">Model Configuration</text></g><g><path fill="none" stroke="black" paint-order="fill stroke markers" d=" M 147.62163284482813 583.1667578100001 L 833.9727936314989 583.1667578100001" stroke-miterlimit="10" stroke-width="1.2565541" stroke-dasharray=""/><g transform="translate(846.3875481394989,583.1667578100001) translate(-846.3875481394989,-583.1667578100001)"><path fill="black" stroke="none" paint-order="stroke fill markers" d=" M 833.8220071394989 576.8839873100002 L 846.3875481394989 583.1667578100001 L 833.8220071394989 589.4495283100001 Z"/></g></g><g><g><rect fill="white" stroke="none" x="458.4032970494892" y="627.4225932120002" width="102.10693063646484" height="19.602243960000003"/></g><text fill="black" stroke="none" font-family="sans-serif" font-size="11pt" font-style="normal" font-weight="normal" text-decoration="normal" x="460.6650944294892" y="640.9933774920001" text-anchor="start" dominant-baseline="alphabetic" xml:space="preserve">Training Data</text></g><g><path fill="none" stroke="black" paint-order="fill stroke markers" d=" M 147.62163284482813 647.0248371720002 L 858.8771373826152 647.0248371720002" stroke-miterlimit="10" stroke-width="1.2565541" stroke-dasharray=""/><g transform="translate(871.2918918906151,647.0248371720002) translate(-871.2918918906151,-647.0248371720002)"><path fill="black" stroke="none" paint-order="stroke fill markers" d=" M 858.7263508906151 640.7420666720002 L 871.2918918906151 647.0248371720002 L 858.7263508906151 653.3076076720001 Z"/></g></g><g><g><rect fill="white" stroke="none" x="904.2136093106152" y="669.6428109720001" width="82.37359323412109" height="19.602243960000003"/></g><text fill="black" stroke="none" font-family="sans-serif" font-size="11pt" font-style="normal" font-weight="normal" text-decoration="normal" x="906.4754066906152" y="683.2135952520001" text-anchor="start" dominant-baseline="alphabetic" xml:space="preserve">Fit on data</text></g><g><path fill="none" stroke="black" paint-order="fill stroke markers" d=" M 886.3705410906151 689.2450549320001 L 946.6851378906151 689.2450549320001 L 946.6851378906151 708.8472988920001 L 898.7852955986151 708.8472988920001" stroke-miterlimit="10" stroke-width="1.2565541" stroke-dasharray=""/><g transform="translate(886.3705410906151,708.8472988920001) translate(-886.3705410906151,-708.8472988920001)"><path fill="black" stroke="none" paint-order="stroke fill markers" d=" M 898.9360820906152 702.5645283920002 L 886.3705410906151 708.8472988920001 L 898.9360820906152 715.1300693920001 Z"/></g></g><g><g><rect fill="white" stroke="none" x="374.21162758537787" y="731.4652726920001" width="270.4902695646875" height="19.602243960000003"/></g><text fill="black" stroke="none" font-family="sans-serif" font-size="11pt" font-style="normal" font-weight="normal" text-decoration="normal" x="376.4734249653779" y="745.0360569720001" text-anchor="start" dominant-baseline="alphabetic" xml:space="preserve">Training Accuracy + Training History</text></g><g><path fill="none" stroke="black" paint-order="fill stroke markers" d=" M 871.2918918906151 751.0675166520001 L 160.03638735282811 751.0675166520001" stroke-miterlimit="10" stroke-width="1.2565541" stroke-dasharray="6.03145968"/><g transform="translate(147.62163284482813,751.0675166520001) translate(-147.62163284482813,-751.0675166520001)"><path fill="black" stroke="none" paint-order="stroke fill markers" d=" M 160.18717384482812 744.7847461520001 L 147.62163284482813 751.0675166520001 L 160.18717384482812 757.3502871520001 Z"/></g></g><g><g><rect fill="white" stroke="none" x="461.6866298741962" y="773.6854904520001" width="95.54026498705078" height="19.602243960000003"/></g><text fill="black" stroke="none" font-family="sans-serif" font-size="11pt" font-style="normal" font-weight="normal" text-decoration="normal" x="463.94842725419625" y="787.2562747320001" text-anchor="start" dominant-baseline="alphabetic" xml:space="preserve">Test Dataset</text></g><g><path fill="none" stroke="black" paint-order="fill stroke markers" d=" M 147.62163284482813 793.2877344120001 L 858.8771373826152 793.2877344120001" stroke-miterlimit="10" stroke-width="1.2565541" stroke-dasharray=""/><g transform="translate(871.2918918906151,793.2877344120001) translate(-871.2918918906151,-793.2877344120001)"><path fill="black" stroke="none" paint-order="stroke fill markers" d=" M 858.7263508906151 787.0049639120001 L 871.2918918906151 793.2877344120001 L 858.7263508906151 799.570504912 Z"/></g></g><g><g><rect fill="white" stroke="none" x="768.3585632612011" y="815.905708212" width="85.09026040941406" height="19.602243960000003"/></g><text fill="black" stroke="none" font-family="sans-serif" font-size="11pt" font-style="normal" font-weight="normal" text-decoration="normal" x="770.620360641201" y="829.476492492" text-anchor="start" dominant-baseline="alphabetic" xml:space="preserve">Predictions</text></g><g><path fill="none" stroke="black" paint-order="fill stroke markers" d=" M 871.2918918906151 835.507952172 L 762.930249549201 835.507952172" stroke-miterlimit="10" stroke-width="1.2565541" stroke-dasharray=""/><g transform="translate(750.515495041201,835.507952172) translate(-750.515495041201,-835.507952172)"><path fill="black" stroke="none" paint-order="stroke fill markers" d=" M 763.0810360412011 829.2251816720001 L 750.515495041201 835.507952172 L 763.0810360412011 841.790722672 Z"/></g></g><g><g><rect fill="white" stroke="none" x="511.55352026354484" y="858.125925972" width="206.04025735765626" height="19.602243960000003"/></g><text fill="black" stroke="none" font-family="sans-serif" font-size="11pt" font-style="normal" font-weight="normal" text-decoration="normal" x="513.8153176435449" y="871.696710252" text-anchor="start" dominant-baseline="alphabetic" xml:space="preserve">Predicted integer sequence</text></g><g><path fill="none" stroke="black" paint-order="fill stroke markers" d=" M 735.436845841201 877.728169932 L 506.1252065515448 877.728169932" stroke-miterlimit="10" stroke-width="1.2565541" stroke-dasharray=""/><g transform="translate(493.7104520435448,877.728169932) translate(-493.7104520435448,-877.728169932)"><path fill="black" stroke="none" paint-order="stroke fill markers" d=" M 506.2759930435448 871.445399432 L 493.7104520435448 877.728169932 L 506.2759930435448 884.010940432 Z"/></g></g><g><g><rect fill="white" stroke="none" x="259.24825557771186" y="900.346143732" width="107.75692453294921" height="19.602243960000003"/></g><text fill="black" stroke="none" font-family="sans-serif" font-size="11pt" font-style="normal" font-weight="normal" text-decoration="normal" x="261.5100529577119" y="913.916928012" text-anchor="start" dominant-baseline="alphabetic" xml:space="preserve">Predicted Text</text></g><g><path fill="none" stroke="black" paint-order="fill stroke markers" d=" M 478.63180284354485 919.948387692 L 160.03638735282811 919.948387692" stroke-miterlimit="10" stroke-width="1.2565541" stroke-dasharray=""/><g transform="translate(147.62163284482813,919.948387692) translate(-147.62163284482813,-919.948387692)"><path fill="black" stroke="none" paint-order="stroke fill markers" d=" M 160.18717384482812 913.665617192 L 147.62163284482813 919.948387692 L 160.18717384482812 926.231158192 Z"/></g></g><g><g><rect fill="white" stroke="none" x="71.9928577117954" y="942.5663614919999" width="37.89025964647461" height="19.602243960000003"/></g><text fill="black" stroke="none" font-family="sans-serif" font-size="11pt" font-style="normal" font-weight="normal" text-decoration="normal" x="74.2546550917954" y="956.1371457719999" text-anchor="start" dominant-baseline="alphabetic" xml:space="preserve">Stop</text></g><g><path fill="none" stroke="black" paint-order="fill stroke markers" d=" M 132.5429836448281 962.168605452 L 61.747745933237304 962.168605452" stroke-miterlimit="10" stroke-width="1.2565541" stroke-dasharray="6.03145968"/><g transform="translate(49.3329914252373,962.168605452) translate(-49.3329914252373,-962.168605452)"><path fill="black" stroke="none" paint-order="stroke fill markers" d=" M 61.898532425237306 955.885834952 L 49.3329914252373 962.168605452 L 61.898532425237306 968.4513759519999 Z"/></g></g></g><g/><g/><g/><g/></g></svg>